<svg width="65" height="64" viewBox="0 0 65 64" fill="none" xmlns="http://www.w3.org/2000/svg">
<path d="M61.75 59.34V60C61.75 60.83 61.08 61.5 60.25 61.5H4.25C3.42 61.5 2.75 60.83 2.75 60V59.34C2.75 54.47 5.22 50.01 9.28 47.4C9.08 46.45 9.09 45.45 9.35 44.47C10.4 40.42 13.61 28.08 14.58 16.66C15.4 6.93 24.33 2.5 32.27 2.5H32.28C40.21 2.5 49.11 6.93 49.92 16.66C50.88 28.03 54.1 40.4 55.15 44.47C55.41 45.45 55.42 46.45 55.22 47.41C59.28 50.01 61.75 54.47 61.75 59.34ZM43.21 58.5H58.72C58.47 55.12 56.71 52.07 53.94 50.15C53.81 50.3 53.68 50.45 53.54 50.59C53.52 50.61 53.51 50.63 53.5 50.64C53.23 50.92 52.93 51.21 52.62 51.51C52.55 51.57 52.48 51.64 52.41 51.71C52.17 51.94 51.92 52.17 51.66 52.41C51.54 52.52 51.42 52.63 51.3 52.73C51.07 52.94 50.84 53.15 50.59 53.36C50.45 53.48 50.3 53.61 50.15 53.73C49.92 53.93 49.67 54.13 49.43 54.33C49.26 54.47 49.1 54.6 48.93 54.73C48.68 54.93 48.42 55.13 48.15 55.33C47.98 55.45 47.81 55.58 47.64 55.71C47.35 55.92 47.05 56.13 46.75 56.34C46.59 56.45 46.43 56.56 46.26 56.67C45.83 56.96 45.38 57.25 44.93 57.52L44.78 57.61C44.3 57.9 43.81 58.18 43.32 58.44C43.28 58.46 43.25 58.48 43.21 58.5ZM52.1 47.43C52.39 46.74 52.44 45.97 52.25 45.22C51.18 41.1 47.91 28.53 46.94 16.91C46.27 9.03 39.1 5.5 32.28 5.5H32.27C25.65 5.5 18.23 9.07 17.56 16.91C16.87 25.13 15.05 33.76 13.66 39.59C14.98 40.95 20.62 46.44 28.52 49.69C29.29 50.01 29.65 50.89 29.34 51.65C29.1885 52.0184 28.897 52.3116 28.5296 52.4653C28.1621 52.619 27.7487 52.6207 27.38 52.47C20.5 49.63 15.34 45.33 12.83 42.97C12.6 43.87 12.4 44.64 12.25 45.22C12.06 45.97 12.12 46.74 12.4 47.43C12.41 47.45 12.43 47.47 12.44 47.49C12.52 47.68 12.62 47.85 12.73 48.02C12.74 48.04 12.75 48.05 12.76 48.07C12.87 48.24 13 48.39 13.14 48.53C14.11 49.52 15.61 50.94 17.48 52.4C21.28 55.36 26.62 58.5 32.25 58.5C37.94 58.5 43.33 55.3 47.15 52.3C48.6327 51.1349 50.0389 49.8756 51.36 48.53C51.5 48.39 51.63 48.24 51.74 48.07C51.75 48.05 51.76 48.04 51.77 48.02C51.88 47.86 51.98 47.68 52.06 47.49C52.07 47.47 52.09 47.45 52.1 47.43ZM5.78 58.5H21.29C21.25 58.48 21.22 58.46 21.18 58.44C20.69 58.18 20.2 57.9 19.72 57.62C19.6705 57.5809 19.6168 57.5474 19.56 57.52C19.11 57.24 18.67 56.96 18.24 56.67C18.07 56.56 17.91 56.44 17.74 56.33C17.45 56.13 17.15 55.92 16.87 55.71C16.69 55.58 16.51 55.45 16.34 55.32C16.08 55.12 15.82 54.93 15.57 54.73C15.4 54.6 15.23 54.46 15.06 54.32C14.82 54.13 14.59 53.94 14.36 53.74C14.2 53.61 14.05 53.48 13.9 53.35C13.66 53.15 13.44 52.95 13.22 52.75C13.09 52.64 12.96 52.52 12.83 52.4C12.59 52.18 12.36 51.97 12.14 51.75C12.05 51.67 11.95 51.58 11.87 51.49C11.56 51.2 11.27 50.91 11 50.64C11 50.63 10.99 50.63 10.99 50.62C10.84 50.47 10.7 50.31 10.56 50.15C9.18993 51.0962 8.04936 52.3374 7.22216 53.7824C6.39495 55.2274 5.90216 56.8395 5.78 58.5Z" fill="#EB4853"/>
<path d="M52.2501 45.22C52.4401 45.97 52.3901 46.74 52.1001 47.43C52.0901 47.45 52.0701 47.47 52.0601 47.49C51.9801 47.68 51.8801 47.86 51.7701 48.02C51.7601 48.04 51.7501 48.05 51.7401 48.07C51.6301 48.24 51.5001 48.39 51.3601 48.53C50.4101 49.5 48.9601 50.88 47.1501 52.3C43.3301 55.3 37.9401 58.5 32.2501 58.5C26.6201 58.5 21.2801 55.36 17.4801 52.4C15.9511 51.2055 14.5013 49.9128 13.1401 48.53C13.0001 48.39 12.8701 48.24 12.7601 48.07C12.7501 48.05 12.7401 48.04 12.7301 48.02C12.6201 47.85 12.5201 47.68 12.4401 47.49C12.4301 47.47 12.4101 47.45 12.4001 47.43C12.1201 46.74 12.0601 45.97 12.2501 45.22C12.4001 44.64 12.6001 43.87 12.8301 42.97C15.3401 45.33 20.5001 49.63 27.3801 52.47C27.7488 52.6207 28.1623 52.619 28.5297 52.4653C28.8972 52.3116 29.1886 52.0184 29.3401 51.65C29.6501 50.89 29.2901 50.01 28.5201 49.69C20.6201 46.44 14.9801 40.95 13.6601 39.59C15.0501 33.76 16.8701 25.13 17.5601 16.91C18.2301 9.07 25.6501 5.5 32.2701 5.5H32.2801C39.1001 5.5 46.2701 9.03 46.9401 16.91C47.9101 28.53 51.1801 41.1 52.2501 45.22ZM49.1501 43.46C49.3278 43.1046 49.3571 42.6932 49.2314 42.3162C49.1058 41.9393 48.8355 41.6277 48.4801 41.45C48.1248 41.2723 47.7133 41.2431 47.3364 41.3687C46.9594 41.4944 46.6478 41.7646 46.4701 42.12C46.4501 42.16 44.4201 46.14 38.9301 49.84C38.2501 50.3 38.0601 51.23 38.5301 51.92C38.6398 52.0836 38.7807 52.2239 38.9449 52.3328C39.1091 52.4416 39.2933 52.5168 39.4867 52.554C39.6801 52.5912 39.879 52.5896 40.0718 52.5495C40.2647 52.5093 40.4476 52.4313 40.6101 52.32C46.7501 48.19 49.0601 43.65 49.1501 43.46ZM44.1501 31.97V21.77C44.1501 15.55 38.8101 10.5 32.2501 10.5C25.6901 10.5 20.3501 15.55 20.3501 21.77V31.97C20.3501 38.33 28.5301 44.29 32.2501 44.29C35.9701 44.29 44.1501 38.33 44.1501 31.97Z" fill="#F5747D"/>
<path d="M48.4801 41.45C49.2201 41.82 49.5201 42.72 49.1501 43.46C49.0601 43.65 46.7501 48.19 40.6101 52.32C40.4476 52.4313 40.2646 52.5093 40.0718 52.5495C39.879 52.5896 39.6801 52.5912 39.4866 52.554C39.2932 52.5168 39.1091 52.4416 38.9449 52.3328C38.7807 52.2239 38.6397 52.0836 38.5301 51.92C38.0601 51.23 38.2501 50.3 38.9301 49.84C44.4201 46.14 46.4501 42.16 46.4701 42.12C46.8401 41.38 47.7401 41.08 48.4801 41.45ZM44.1501 24.74V31.97C44.1501 38.33 35.9701 44.29 32.2501 44.29C28.5301 44.29 20.3501 38.33 20.3501 31.97V21.77C20.3501 15.55 25.6901 10.5 32.2501 10.5C38.8101 10.5 44.1501 15.55 44.1501 21.77V24.74ZM41.1501 31.97V24.74C41.1501 23.07 39.6601 21.71 37.8301 21.71H26.6701C24.8401 21.71 23.3501 23.07 23.3501 24.74V31.97C23.3501 36.44 30.0201 41.29 32.2501 41.29C34.4801 41.29 41.1501 36.44 41.1501 31.97ZM40.6501 19.35C40.6901 19.37 40.7401 19.39 40.7801 19.41C39.6901 16 36.2801 13.5 32.2501 13.5C28.2201 13.5 24.8101 16 23.7201 19.41C23.7601 19.39 23.8101 19.37 23.8501 19.35C24.0001 19.28 24.1601 19.21 24.3201 19.15C24.3901 19.12 24.4701 19.09 24.5501 19.07C24.7756 18.9888 25.0061 18.922 25.2401 18.87C25.4001 18.84 25.5601 18.81 25.7201 18.79C25.7901 18.78 25.8701 18.76 25.9401 18.75C26.1801 18.73 26.4201 18.71 26.6701 18.71H37.8301C38.0801 18.71 38.3201 18.73 38.5601 18.75C38.6301 18.76 38.7101 18.78 38.7801 18.79C38.9401 18.81 39.1001 18.84 39.2601 18.87C39.4941 18.922 39.7246 18.9888 39.9501 19.07C40.0301 19.09 40.1101 19.12 40.1801 19.15C40.3401 19.21 40.5001 19.28 40.6501 19.35Z" fill="#EB4853"/>
<path d="M40.7802 19.41C40.7402 19.39 40.6902 19.37 40.6502 19.35C40.5002 19.28 40.3402 19.21 40.1802 19.15C40.1102 19.12 40.0302 19.09 39.9502 19.07C39.7247 18.9888 39.4942 18.922 39.2602 18.87C39.1002 18.84 38.9402 18.81 38.7802 18.79C38.7102 18.78 38.6302 18.76 38.5602 18.75C38.3202 18.73 38.0802 18.71 37.8302 18.71H26.6702C26.4202 18.71 26.1802 18.73 25.9402 18.75C25.8702 18.76 25.7902 18.78 25.7202 18.79C25.5602 18.81 25.4002 18.84 25.2402 18.87C25.1502 18.89 25.0702 18.91 24.9902 18.93C24.8402 18.97 24.6902 19.02 24.5502 19.07C24.4702 19.09 24.3902 19.12 24.3202 19.15C24.1602 19.21 24.0002 19.28 23.8502 19.35C23.8102 19.37 23.7602 19.39 23.7202 19.41C24.8102 16 28.2202 13.5 32.2502 13.5C36.2802 13.5 39.6902 16 40.7802 19.41Z" fill="#F5747D"/>
</svg>
