<svg width="40" height="40" viewBox="0 0 40 40" fill="none" xmlns="http://www.w3.org/2000/svg">
<circle cx="20" cy="20" r="19.25" fill="#FDE3E5" stroke="#FDCBCE" stroke-width="1.5"/>
<path d="M25.8075 16.9378C25.4338 18.3664 24.5619 18.681 24.0967 18.7442C23.8101 19.3171 23.1802 20.488 22.55 21.0763C22.2982 21.3114 21.9709 21.5098 21.5772 21.666C21.0747 21.8654 20.5439 21.9666 19.9999 21.9666C19.4558 21.9666 18.925 21.8654 18.4225 21.666C18.029 21.5099 17.7015 21.3115 17.4497 21.0763C16.8194 20.4881 16.1895 19.3171 15.9029 18.7442C15.4378 18.681 14.5659 18.3665 14.1923 16.9378C13.9924 16.1738 14.0436 15.551 14.3444 15.0867C14.4774 14.8814 14.6386 14.7417 14.7887 14.647C14.7891 14.4945 14.7955 14.3036 14.8132 14.0864C14.5429 13.7109 14.1756 12.9007 14.6306 11.5892C15.1115 10.2028 16.1988 9.98868 16.7237 9.97013C16.9011 9.64029 17.2363 9.172 17.845 8.74147C18.5208 8.2633 19.4031 8 20.3295 8C21.4694 8 22.6165 8.40121 23.6466 9.16025C25.3168 10.3909 25.1737 13.1207 25.1327 13.6163C25.1934 14.0318 25.2102 14.3922 25.2109 14.6469C25.361 14.7416 25.5222 14.8813 25.6552 15.0865C25.956 15.551 26.0072 16.1737 25.8075 16.9378ZM30.692 27.5761V31.451C30.692 31.7542 30.4461 32 30.143 32H9.85661C9.55346 32 9.30762 31.7542 9.30762 31.451V27.5761C9.30762 25.9886 10.26 24.5819 11.734 23.9922L16.5338 22.0723C16.672 22.0172 16.8266 22.0201 16.9624 22.0812C17.0981 22.142 17.2034 22.2554 17.2539 22.3953L18.4606 25.7313L18.6995 25.0444L18.3194 24.1152C18.2502 23.9459 18.2697 23.7532 18.3718 23.6014C18.4738 23.4495 18.6446 23.3584 18.8275 23.3584H21.1722C21.3551 23.3584 21.5261 23.4495 21.628 23.6014C21.73 23.7532 21.7495 23.9459 21.6803 24.1152L21.3002 25.0444L21.5391 25.7313L22.7458 22.3953C22.7963 22.2554 22.9016 22.142 23.0373 22.0812C23.1732 22.0202 23.3279 22.0173 23.4659 22.0723L28.2658 23.9922C29.7397 24.5819 30.692 25.9886 30.692 27.5761ZM27.7696 27.9974C27.7696 27.6942 27.5237 27.4484 27.2206 27.4484H23.5346C23.2315 27.4484 22.9856 27.6942 22.9856 27.9974V29.7092C22.9856 30.0123 23.2315 30.2581 23.5346 30.2581H27.2206C27.5237 30.2581 27.7696 30.0123 27.7696 29.7092V27.9974Z" fill="#EB4853"/>
</svg>
