<svg width="40" height="40" viewBox="0 0 40 40" fill="none" xmlns="http://www.w3.org/2000/svg">
<circle cx="20" cy="20" r="19.25" fill="#FDE3E5" stroke="#FDCBCE" stroke-width="1.5"/>
<g clip-path="url(#clip0_310_716)">
<path d="M27.2236 11.8514C26.5283 12.4672 25.6741 13.1316 24.8442 13.3001C23.3034 13.6132 21.6465 12.8925 20.3738 13.0852C20.291 13.0981 20.2111 13.1132 20.1321 13.1266C19.9147 13.0705 19.686 13.0237 19.4443 12.9869C19.27 12.9606 19.0948 12.9497 18.92 12.9497C18.4191 12.9509 17.9174 13.0337 17.4211 13.1098C16.9244 13.1867 16.434 13.2586 15.9711 13.2586C15.7273 13.2586 15.492 13.2394 15.2662 13.1926C14.9597 13.1316 14.6265 12.9777 14.2925 12.7624C13.9575 12.5487 13.6231 12.2745 13.3061 11.9943C13.1606 11.8639 12.9955 11.7644 12.8215 11.6979C12.6472 11.6318 12.4636 11.6013 12.2842 11.6017C11.9991 11.6017 11.7244 11.6753 11.4656 11.7899C11.2373 11.8915 11.0191 12.0261 10.8075 12.185C10.4367 12.4614 10.0846 12.813 9.75852 13.206C9.27017 13.7964 8.83911 14.4809 8.52383 15.1561C8.36623 15.4947 8.237 15.8309 8.14588 16.1562C8.05475 16.4815 8 16.795 8 17.0969C8 17.2558 8.015 17.4121 8.05353 17.5643C8.09197 17.7178 8.15427 17.8683 8.24839 18.0042C8.27722 18.046 8.30773 18.0795 8.34791 18.1095C8.35377 18.1146 8.55444 18.2743 8.77227 18.4825C8.88139 18.5874 8.99431 18.7041 9.08834 18.8161C9.18158 18.9248 9.25433 19.0335 9.28152 19.0942C9.4048 19.3555 9.71881 19.9927 10.1357 20.7056C10.3447 21.0618 10.5797 21.4368 10.8318 21.7947C10.9593 21.9745 11.0915 22.1514 11.2269 22.3186C10.8577 22.776 10.8598 23.4475 11.2637 23.902C11.7136 24.4104 12.4895 24.4568 12.9972 24.0065L13.0323 23.9751C12.8136 24.4112 12.8667 24.9547 13.2099 25.3419C13.6594 25.8495 14.4358 25.8963 14.9438 25.446L15.1433 25.2645C14.8707 25.7123 14.907 26.3044 15.2729 26.7174C15.7236 27.2242 16.4996 27.271 17.0076 26.8224L17.3145 26.5439C17.0247 26.9955 17.0557 27.6005 17.4283 28.0211C17.8777 28.5287 18.6541 28.5759 19.1621 28.1257L19.6588 27.6992C19.7056 27.7217 19.7512 27.7422 19.7935 27.7619L20.133 27.96L20.13 27.9576C20.2998 28.0587 20.4754 28.1407 20.6581 28.1979C20.8404 28.2552 21.0298 28.2887 21.2226 28.2887C21.4312 28.2887 21.644 28.2486 21.8439 28.1599C22.0429 28.0721 22.226 27.9358 22.3783 27.7635C22.5601 27.5586 22.681 27.3182 22.7424 27.0678C22.9235 27.1335 23.1133 27.1665 23.3014 27.1665C23.5276 27.1665 23.7538 27.1196 23.9649 27.0269C24.1757 26.934 24.371 26.7948 24.5327 26.6121C24.7334 26.3864 24.8601 26.1175 24.9148 25.839C25.0228 25.8607 25.1315 25.8728 25.2402 25.8728C25.4676 25.8728 25.6938 25.8269 25.9045 25.7332C26.1156 25.6408 26.3109 25.5012 26.4727 25.3189C26.6926 25.0714 26.8227 24.7724 26.867 24.4664C26.9146 24.4705 26.9618 24.4722 27.0082 24.4722C27.28 24.4722 27.5468 24.4136 27.7943 24.3091C28.0401 24.2038 28.2696 24.0508 28.454 23.8438C28.6255 23.6493 28.7551 23.4227 28.8479 23.1786C28.9403 22.9335 28.9942 22.6722 28.9951 22.4042C28.9951 22.3064 28.9867 22.2077 28.97 22.1099C29.9161 21.0571 30.417 19.3036 30.6341 18.8437C30.8841 18.3118 31.8286 17.5567 31.8286 17.5567C32.8471 16.0867 29.0724 10.2128 27.2236 11.8514ZM27.9289 22.8316C27.8754 22.9746 27.7968 23.1059 27.7195 23.192C27.6488 23.2727 27.5384 23.3509 27.4096 23.4061C27.2813 23.4605 27.1362 23.4901 27.0082 23.4901C26.9242 23.4901 26.8468 23.4772 26.7841 23.4563C26.7804 23.4546 26.7766 23.4534 26.7737 23.4521L25.3722 22.0999C25.1765 21.9118 24.8659 21.9177 24.6777 22.1125C24.4892 22.3078 24.4946 22.6188 24.6898 22.807L25.82 23.8979C25.8245 23.9087 25.8275 23.9192 25.8329 23.9301C25.8793 24.0225 25.9036 24.1261 25.9036 24.229C25.9036 24.387 25.85 24.54 25.7367 24.6672C25.6711 24.7425 25.5933 24.7968 25.5084 24.8344C25.4244 24.872 25.3324 24.8913 25.24 24.8913C25.0828 24.8904 24.9298 24.8369 24.8018 24.724L24.7734 24.6981C24.7671 24.6922 24.7638 24.6855 24.758 24.6789L23.5295 23.397C23.3419 23.2005 23.0307 23.1937 22.8359 23.3811C22.6398 23.5684 22.6327 23.8803 22.8196 24.076L23.8619 25.1639C23.864 25.1677 23.8656 25.1722 23.8678 25.1756C23.9317 25.2801 23.9639 25.4005 23.9639 25.5213C23.9635 25.6798 23.91 25.8333 23.7971 25.9608H23.7975C23.731 26.0352 23.6533 26.0895 23.5692 26.128C23.4848 26.1648 23.3928 26.1832 23.3012 26.1832C23.1432 26.1832 22.9889 26.1297 22.8613 26.0173L22.8425 26.0018L22.4629 25.6965L21.8403 25.036C21.6543 24.839 21.3428 24.8298 21.1459 25.0159C20.9485 25.2015 20.9393 25.5135 21.1253 25.7104L21.7161 26.3371C21.7767 26.44 21.8094 26.5562 21.8094 26.6741C21.8081 26.8313 21.755 26.9852 21.643 27.1115C21.5752 27.188 21.5112 27.2323 21.4448 27.262C21.3783 27.2909 21.3076 27.3063 21.2224 27.3067C21.1433 27.3067 21.0534 27.2929 20.9531 27.2611C20.8528 27.2294 20.7445 27.18 20.6324 27.114L20.6295 27.1115L20.4556 27.0111C20.936 26.5579 20.9735 25.8024 20.5325 25.3044C20.0884 24.8043 19.3266 24.7533 18.8195 25.184L18.911 25.1012C19.4195 24.6518 19.4659 23.8754 19.0156 23.3678C18.5665 22.8602 17.7897 22.8134 17.2821 23.2633L16.9811 23.5346C17.2721 23.0843 17.2411 22.4781 16.8682 22.0575C16.4179 21.5499 15.6423 21.5026 15.1343 21.9529L14.7346 22.3167C14.9219 21.8919 14.86 21.3772 14.531 21.0067C14.0811 20.4988 13.3047 20.4524 12.7975 20.9018L11.9518 21.6519C11.8451 21.5185 11.7385 21.3759 11.634 21.2279C11.2878 20.7362 10.9625 20.1877 10.7045 19.7177C10.447 19.2478 10.2542 18.8548 10.1702 18.6754C10.1258 18.5813 10.0732 18.4952 10.0163 18.4125C9.91677 18.2694 9.80263 18.1348 9.68638 18.0111C9.51331 17.8241 9.3327 17.6594 9.1947 17.5394C9.12866 17.4817 9.07259 17.4336 9.03083 17.3998C9.02206 17.3801 9.01372 17.3563 9.00617 17.3262C8.99197 17.2685 8.98189 17.1912 8.98189 17.0971C8.98189 16.9416 9.00908 16.7442 9.06467 16.5217C9.16208 16.1338 9.34728 15.6751 9.59066 15.2181C9.95562 14.5299 10.4545 13.8401 10.9629 13.345C11.2171 13.0962 11.4721 12.8976 11.7038 12.7684C11.8191 12.7045 11.9283 12.6568 12.0257 12.6275C12.1231 12.5974 12.2097 12.5841 12.284 12.5841C12.3555 12.5845 12.4158 12.5953 12.4747 12.6166C12.5324 12.6401 12.5909 12.6727 12.6545 12.7291C12.9911 13.0281 13.3602 13.332 13.7621 13.5896C14.1626 13.8459 14.5966 14.0591 15.0703 14.1561C15.3742 14.218 15.6753 14.2405 15.9709 14.2405C16.5315 14.2401 17.0713 14.1578 17.571 14.0808C17.6968 14.0608 17.8197 14.0423 17.9402 14.024C17.5651 14.2823 17.2022 14.5888 16.8163 14.9488C15.715 15.9761 14.7655 17.2308 14.2387 17.8011C13.7123 18.3706 14.6915 19.359 16.2502 18.9058C17.808 18.4534 18.4795 17.291 18.4795 17.291L20.4358 16.589L22.3775 17.0335L27.0707 21.2588L27.8818 22.0432L27.8977 22.0566C27.9303 22.0867 27.9554 22.1218 27.9771 22.1787C27.998 22.2355 28.0123 22.3125 28.0123 22.4045C28.013 22.5335 27.9837 22.6886 27.9289 22.8316Z" fill="#EB4853"/>
</g>
<defs>
<clipPath id="clip0_310_716">
<rect width="24" height="24" fill="white" transform="translate(8 8)"/>
</clipPath>
</defs>
</svg>
