<svg width="151" height="150" viewBox="0 0 151 150" fill="none" xmlns="http://www.w3.org/2000/svg">
<path d="M30.7344 19.6875C29.3281 19.4531 27.2187 15.4687 21.5937 10.0781C15.0312 3.28124 10.3437 3.74999 7.29686 6.79686C4.24999 9.84374 3.78124 14.5312 10.5781 21.0937C16.2031 26.7187 19.9531 28.5937 20.1875 30.2344C21.3594 38.9062 15.7344 46.875 19.25 50.1562L50.6562 18.75C47.375 15.2344 39.4062 20.8594 30.7344 19.6875Z" fill="#FFE62E"/>
<path d="M143.469 92.8125C146.75 96.0938 146.75 101.016 143.469 104.297L104.797 142.969C101.516 146.25 96.5938 146.25 93.3125 142.969L30.5 80.1562C27.2187 76.875 27.2187 71.9531 30.5 68.6719L69.1719 30C72.4531 26.7187 77.375 26.7187 80.6562 30L143.469 92.8125Z" fill="#BA353E" fill-opacity="0.3"/>
<path d="M132.922 93.9844C135.266 96.3281 135.266 100.312 132.922 102.656L103.391 132.422C101.047 134.766 97.0625 134.766 94.7188 132.422L51.5938 89.5312H128.469L132.922 93.9844Z" fill="white"/>
<path d="M39.041 76.9195L53.9566 62.0039L57.934 65.9813L43.0184 80.8969L39.041 76.9195Z" fill="#EB4853"/>
<path d="M49.5854 87.4664L64.5011 72.5508L68.4784 76.5281L53.5628 91.4437L49.5854 87.4664Z" fill="#EB4853"/>
<path d="M60.1348 98.016L75.048 83.0957L79.0254 87.0731L64.1121 101.991L60.1348 98.016Z" fill="#EB4853"/>
<path d="M70.6816 108.558L85.5996 93.6445L89.577 97.6219L74.659 112.535L70.6816 108.558Z" fill="#EB4853"/>
<path d="M81.2402 119.117L96.1559 104.201L100.133 108.179L85.2176 123.094L81.2402 119.117Z" fill="#EB4853"/>
<path d="M91.7891 129.664L106.705 114.748L110.682 118.725L95.7641 133.641L91.7891 129.664Z" fill="#EB4853"/>
<path d="M16.2033 59.5314C12.6877 56.0158 15.2658 52.7346 18.7814 49.2189L49.4846 18.2814C53.0002 14.7658 56.2814 12.1877 59.797 15.7033L67.7658 23.672C71.2814 27.1877 68.7033 30.4689 65.1877 33.9845L34.4845 64.6877C30.9689 68.2033 27.6877 70.7814 24.172 67.2658L16.2033 59.5314Z" fill="#EB4853"/>
<path d="M16.3252 54.9655L18.1486 53.1421L30.4205 65.3999L28.5971 67.2233L16.3252 54.9655Z" fill="#EB4853"/>
<path d="M54.2847 16.9851L56.1081 15.1616L68.3706 27.4241L66.5472 29.2476L54.2847 16.9851Z" fill="#EB4853"/>
<path d="M47.9609 23.3133L49.782 21.4922L62.0469 33.7547L60.2234 35.5781L47.9609 23.3133Z" fill="#EB4853"/>
<path d="M41.6401 29.6389L43.4636 27.8154L55.7214 40.0873L53.8956 41.9107L41.6401 29.6389Z" fill="#EB4853"/>
<path d="M35.3047 35.9694L37.1281 34.146L49.393 46.4108L47.5695 48.2343L35.3047 35.9694Z" fill="#EB4853"/>
<path d="M28.9863 42.3L30.8121 40.4766L43.0699 52.7484L41.2441 54.5719L28.9863 42.3Z" fill="#EB4853"/>
<path d="M22.6509 48.6257L24.4743 46.8022L36.7368 59.0671L34.9157 60.8905L22.6509 48.6257Z" fill="#EB4853"/>
</svg>
