<svg width="53" height="50" viewBox="0 0 53 50" fill="none" xmlns="http://www.w3.org/2000/svg">
<path d="M24.6398 44.884C12.474 27.9577 10.2158 26.2205 10.2158 19.9999C10.2158 11.4789 17.4133 4.57129 26.292 4.57129C35.1707 4.57129 42.3682 11.4789 42.3682 19.9999C42.3682 26.2205 40.11 27.9577 27.9442 44.884C27.1458 45.9909 25.4381 45.9908 24.6398 44.884ZM26.292 26.4284C29.9915 26.4284 32.9904 23.5503 32.9904 19.9999C32.9904 16.4494 29.9915 13.5713 26.292 13.5713C22.5926 13.5713 19.5936 16.4494 19.5936 19.9999C19.5936 23.5503 22.5926 26.4284 26.292 26.4284Z" fill="#EB4853"/>
</svg>
