<svg width="65" height="64" viewBox="0 0 65 64" fill="none" xmlns="http://www.w3.org/2000/svg">
<g clip-path="url(#clip0_228_830)">
<path d="M47.8081 22.1473C47.9214 21.8675 47.9828 21.5623 47.9828 21.2483V21.2477V21.2469V21.246V21.245V21.2439V21.2426V21.2412V21.2396V21.2379V21.2361V21.2342V21.2321V21.2299V21.2276V21.2251V21.2225V21.2198V21.217V21.214V21.211V21.2077V21.2044V21.201V21.1974V21.1937V21.1899V21.1859V21.1819V21.1777V21.1734V21.1689V21.1644V21.1597V21.155V21.1501V21.1451V21.1399V21.1347V21.1293V21.1239V21.1183V21.1126V21.1068V21.1009V21.0948V21.0887V21.0824V21.0761V21.0696V21.063V21.0563V21.0495V21.0426V21.0356V21.0285V21.0213V21.0139V21.0065V20.999V20.9913V20.9836V20.9757V20.9678V20.9597V20.9516V20.9433V20.935V20.9265V20.918V20.9093V20.9006V20.8917V20.8828V20.8737V20.8646V20.8554V20.8461V20.8366V20.8271V20.8175V20.8078V20.798V20.7882V20.7782V20.7681V20.758V20.7477V20.7374V20.727V20.7165V20.7059V20.6952V20.6845V20.6736V20.6627V20.6517V20.6406V20.6294V20.6181V20.6068V20.5953V20.5838V20.5722V20.5605V20.5488V20.537V20.525V20.5131V20.501V20.4888V20.4766V20.4643V20.452V20.4395V20.427V20.4144V20.4017V20.389V20.3762V20.3633V20.3503V20.3373V20.3242V20.311V20.2978V20.2845V20.2711V20.2577V20.2442V20.2306V20.217V20.2033V20.1895V20.1756V20.1618V20.1478V20.1338V20.1197V20.1055V20.0913V20.0771V20.0627V20.0483V20.0339V20.0194V20.0048V19.9902V19.9755V19.9608V19.946V19.9312V19.9163V19.9013V19.8863V19.8712V19.8561V19.841V19.8257V19.8105V19.7951V19.7798V19.7644V19.7489V19.7334V19.7178V19.7022V19.6866V19.6708V19.6551V19.6393V19.6235V19.6076V19.5917V19.5757V19.5597V19.5436V19.5275V19.5114V19.4952V19.479V19.4627V19.4465V19.4301V19.4137V19.3973V19.3809V19.3644V19.3479V19.3314V19.3148V19.2981V19.2815V19.2648V19.2481V19.2313V19.2146V19.1978V19.1809V19.164V19.1471V19.1302V19.1132V19.0963V19.0792V19.0622V19.0451V19.0281V19.0109V18.9938V18.9766V18.9594V18.9422V18.925V18.9078V18.8905V18.8732V18.8559V18.8385V18.8212V18.8038V18.7864V18.769V18.7516V18.7341V18.7167V18.6992V18.6817V18.6642V18.6467V18.6292V18.6116V18.5941V18.5765V18.5589V18.5413V18.5237V18.5061V18.4885V18.4709V18.4532V18.4356V18.418V18.4003V18.3826V18.365V18.3473V18.3296V18.312V18.2943V18.2766V18.2589V18.2412V18.2235V18.2058V18.1881V18.1705V18.1528V18.1351V18.1174V18.0997V18.082V18.0644V18.0467V18.029V18.0114V17.9937V17.9761V17.9584V17.9408V17.9232V17.9056V17.888V17.8704V17.8528V17.8352V17.8176V17.8001V17.7825V17.765V17.7475V17.73V17.7125V17.695V17.6776V17.6601V17.6427V17.6253V17.6079V17.5905V17.5732V17.5558V17.5385V17.5212V17.504V17.4867V17.4695V17.4523V17.4351V17.4179V17.4008V17.3837V17.3666V17.3495V17.3325V17.3155V17.2985V17.2815V17.2646V17.2477V17.2308V17.214V17.1972V17.1804V17.1636V17.1469V17.1303V17.1136V17.097V17.0804V17.0639V17.0473V17.0309V17.0144V16.998V16.9817V16.9653V16.949V16.9328V16.9166V16.9004V16.8843V16.8682V16.8521V16.8361V16.8201V16.8042V16.7883V16.7725V16.7567V16.741V16.7253V16.7096V16.694V16.6784V16.6629V16.6475V16.6321V16.6167V16.6014V16.5861V16.5709V16.5557V16.5406V16.5256V16.5106V16.4956V16.4807V16.4659V16.4511V16.4364V16.4217V16.4071V16.3925V16.378V16.3636V16.3492V16.3349V16.3206V16.3064V16.2923V16.2782V16.2642V16.2502V16.2363V16.2225V16.2087V16.195V16.1814V16.1678V16.1543V16.1409V16.1275V16.1142V16.101V16.0878V16.0747V16.0617V16.0487V16.0359V16.0231V16.0103V15.9977V15.9851V15.9725V15.9601V15.9477V15.9354V15.9232V15.9111V15.899V15.887V15.8751V15.8633V15.8516V15.8399V15.8283V15.8168V15.8054V15.794V15.7828V15.7716V15.7605V15.7495V15.7385V15.7277V15.717V15.7063V15.6957V15.6852V15.6748V15.6645V15.6542V15.6441V15.634V15.6241V15.6142V15.6044V15.5947V15.5851V15.5756V15.5662V15.5569V15.5477V15.5386V15.5295V15.5206V15.5118V15.503V15.4944V15.4858V15.4774V15.4691V15.4608V15.4527V15.4446V15.4367V15.4288V15.4211V15.4135V15.4059V15.3985V15.3912V15.384V15.3768V15.3698V15.3629V15.3562V15.3495V15.3429V15.3364V15.3301V15.3238V15.3177V15.3117V15.3058V15.3V15.2943V15.2887V15.2832V15.2779V15.2726V15.2675V15.2625V15.2576V15.2529V15.2482V15.2437V15.2393V15.235V15.2308V15.2268V15.2228V15.219V15.2153V15.2117V15.2083V15.205V15.2018V15.1987V15.1958V15.1929V15.1902V15.1877V15.1852V15.1829V15.1807V15.1786V15.1767V15.1749V15.1732V15.1717V15.1703V15.169V15.1679V15.1668V15.166V15.1652V15.1646V15.1641V15.1638V15.1636L47.4828 15.1635H47.9828C47.9828 8.17841 42.2959 2.5 35.3088 2.5H30.679C23.6919 2.5 18.005 8.17841 18.005 15.1635V21.2483C18.005 21.5695 18.0701 21.8737 18.1847 22.1503C17.319 22.8135 16.7497 23.8457 16.7497 25.0278C16.7497 26.6363 17.8 27.9938 19.2428 28.4795C19.1248 33.6329 20.2037 37.9057 22.5092 41.2143C12.5351 41.4795 4.5 49.6667 4.5 59.6914C4.5 62.343 6.661 64.5 9.3145 64.5H56.6855C59.339 64.5 61.5 62.343 61.5 59.6914C61.5001 50.3338 54.2712 41.729 43.4735 41.2305C45.7873 37.9201 46.8749 33.642 46.7515 28.4799C48.1995 27.9946 49.2505 26.637 49.2505 25.0278C49.2505 23.8454 48.6762 22.8077 47.8081 22.1473ZM20.4162 23.6318L20.4192 23.6318L20.4162 23.6318ZM45.5937 23.638H45.5966C45.9926 23.638 46.339 23.7923 46.5868 24.0398C46.8346 24.2872 46.9889 24.6328 46.9889 25.0276C46.9889 25.7881 46.364 26.4111 45.5966 26.4111C45.2076 26.4111 44.7986 26.6414 44.5964 27.0115L44.5963 27.0114L44.5912 27.0212C43.3831 29.3533 42.0571 31.3115 40.6486 32.8533C40.0592 33.4963 39.0973 33.5548 38.5334 33.0281C37.0683 31.6502 35.022 30.9794 33.0025 30.9794C30.9828 30.9794 28.935 31.6504 27.4667 33.0281C26.8858 33.5724 25.9243 33.48 25.3521 32.8539C23.9497 31.3182 22.6172 29.3533 21.409 27.0212L21.409 27.0212L21.4064 27.0162C21.2128 26.6526 20.8102 26.4112 20.4036 26.4112C19.6362 26.4112 19.0114 25.7882 19.0114 25.0278C19.0114 24.2463 19.6194 23.6381 20.4036 23.6381C20.4253 23.6381 20.4481 23.6367 20.4716 23.6335C20.4787 23.6326 20.4858 23.6315 20.4929 23.6302C21.7698 23.5834 22.7833 22.5298 22.7833 21.2483V18.7149C29.4668 17.166 36.3113 17.178 43.2044 18.7481V21.2483C43.2044 22.5661 44.2751 23.6301 45.5937 23.638ZM41.5825 43.4676C42.2336 43.4676 42.6191 43.4676 42.8551 43.4679C42.209 47.3021 38.1167 50.3918 33.0002 50.3918C27.8808 50.3918 23.787 47.2987 23.1443 43.4672C23.265 43.4661 23.3715 43.4666 23.5206 43.4674C23.7101 43.4684 23.9684 43.4697 24.4123 43.4684C25.6455 44.6734 27.0974 45.6939 28.7581 46.5263L28.7584 46.5264C31.3751 47.8363 34.5376 47.8837 37.2365 46.5259C38.8975 45.6935 40.3493 44.6727 41.5825 43.4676ZM35.4837 38.0165C35.4837 38.2789 35.3005 38.6083 34.8333 38.899C34.3777 39.1826 33.7255 39.3747 33.0002 39.3747C32.2713 39.3747 31.6176 39.1825 31.1612 38.8989C30.6933 38.6081 30.5103 38.2788 30.5103 38.0165C30.5103 37.7542 30.6933 37.4248 31.1612 37.1341C31.6176 36.8505 32.2713 36.6582 33.0002 36.6582C33.7255 36.6582 34.3777 36.8503 34.8333 37.1339C35.3005 37.4247 35.4837 37.7541 35.4837 38.0165ZM20.2665 15.1635C20.2665 9.42444 24.937 4.75977 30.6788 4.75977H35.3087C41.0507 4.75977 45.7212 9.42444 45.7212 15.1635V17.0388C36.8537 14.6472 28.3058 14.786 20.2665 17.0205V15.1635ZM9.31474 62.2402C7.90609 62.2402 6.76175 61.0966 6.76175 59.6914C6.76175 51.4656 12.9251 44.6509 20.8768 43.604C21.6005 48.7573 26.8256 52.6514 33.0002 52.6514C39.1746 52.6514 44.3931 48.7576 45.1228 43.6167C53.0511 44.6663 59.2386 51.5395 59.2386 59.6913C59.2386 61.0966 58.0944 62.2402 56.6856 62.2402H9.31474Z" fill="#EB4853" stroke="#EB4853"/>
</g>
<defs>
<clipPath id="clip0_228_830">
<rect width="64" height="64" fill="white" transform="translate(0.75)"/>
</clipPath>
</defs>
</svg>
