<svg width="151" height="150" viewBox="0 0 151 150" fill="none" xmlns="http://www.w3.org/2000/svg">
<path d="M66.7598 43.1068C67.0455 42.8785 67.8573 42.4878 69.1268 42.4878H81.872C83.144 42.4878 83.9523 42.8785 84.2403 43.1068V51.493H66.7598V43.1068Z" fill="white"/>
<path d="M34.9219 58.3908C34.9219 57.4901 35.6541 56.7563 36.5539 56.7563H114.446C115.347 56.7563 116.079 57.4901 116.079 58.3908V84.7263L77.1166 70.1146C76.0814 69.7238 74.9144 69.7263 73.8914 70.1121L34.9219 84.7263V58.3908Z" fill="#FDE3E3"/>
<path d="M44.7286 135.64C24.8068 116.072 23.3698 99.5311 23.4346 94.6531L75.5001 75.1294L127.563 94.6531C127.624 99.5506 126.181 116.081 106.269 135.64H44.7286Z" fill="#EB4853"/>
<path d="M112.651 8.17034C112.375 5.15884 110.173 2.63184 107.114 2.63184C104.844 2.63184 103.02 3.99659 102.163 5.95709C101.311 3.99659 99.3529 2.63184 97.0874 2.63184C94.0259 2.63184 91.8261 5.15884 91.5501 8.17034C91.5501 8.17034 91.4014 8.92109 91.7309 10.2651L92.2874 10.9033C89.7851 10.9436 87.7734 12.4536 86.8286 14.6203C85.8641 12.4256 83.6791 10.8888 81.1279 10.8888C77.7001 10.8888 75.2306 13.7293 74.9169 17.1058C74.9169 17.1058 74.7496 17.9431 75.1171 19.4543C75.6211 21.5138 76.8066 23.3351 78.3911 24.7328L86.8286 31.9983L95.1171 24.7328C96.7089 23.3351 97.8881 21.5138 98.3934 19.4543C98.5229 18.9233 98.5741 18.5083 98.6009 18.1518L99.3774 19.0431L102.163 21.4441L109.551 14.9646C110.972 13.7233 112.021 12.0973 112.471 10.2651C112.798 8.92109 112.651 8.17034 112.651 8.17034Z" fill="#EB4853"/>
<path d="M108.4 140.901H42.5983L41.8341 140.166C15.1848 114.495 18.1768 93.2714 18.3148 92.3779L18.5566 90.8642L73.8908 70.1122C74.9138 69.7265 76.0808 69.724 77.1161 70.1147L132.443 90.8642L132.68 92.3779C132.822 93.2714 135.81 114.495 109.164 140.166L108.4 140.901ZM44.7283 135.64H106.269C126.181 116.081 127.626 99.5482 127.563 94.6532L75.4998 75.1295L23.4343 94.6532C23.3696 99.5312 24.8066 116.072 44.7283 135.64Z" fill="#393939"/>
<path d="M33.4259 102.241C32.3567 102.241 31.3494 101.582 30.9564 100.52C30.4547 99.1577 31.1542 97.6415 32.5164 97.1387L76.6619 80.8765L118.525 97.1582C119.88 97.6807 120.551 99.209 120.026 100.561C119.496 101.916 117.971 102.59 116.618 102.06L76.6107 86.5062L34.3354 102.078C34.0352 102.19 33.7287 102.241 33.4259 102.241Z" fill="#393939"/>
<path d="M89.5038 54.7239H84.2401V43.1066C83.9521 42.8784 83.1438 42.4876 81.8718 42.4876H69.1266C67.8571 42.4876 67.0453 42.8784 66.7596 43.1066V54.7239H61.4971V42.8271C61.4971 39.6336 64.7783 37.2251 69.1266 37.2251H81.8718C86.2226 37.2251 89.5038 39.6336 89.5038 42.8271V54.7239Z" fill="#393939"/>
<path d="M121.342 88.5227H116.079V58.3907C116.079 57.4899 115.344 56.7562 114.445 56.7562H36.5537C35.6539 56.7562 34.9217 57.4899 34.9217 58.3907V88.5227H29.6592V58.3907C29.6592 54.5872 32.7537 51.4927 36.5537 51.4927H114.445C118.247 51.4927 121.342 54.5872 121.342 58.3907V88.5227Z" fill="#393939"/>
<path d="M103.828 65.8506H98.564C97.1137 65.8506 95.9322 64.6726 95.9322 63.2201C95.9322 61.7661 97.1137 60.5884 98.564 60.5884H103.828C105.28 60.5884 106.459 61.7661 106.459 63.2201C106.459 64.6726 105.28 65.8506 103.828 65.8506ZM90.671 65.8506H85.4072C83.9545 65.8506 82.7755 64.6726 82.7755 63.2201C82.7755 61.7661 83.9545 60.5884 85.4072 60.5884H90.671C92.121 60.5884 93.3027 61.7661 93.3027 63.2201C93.3027 64.6726 92.121 65.8506 90.671 65.8506ZM77.5117 65.8506H72.2492C70.7977 65.8506 69.6175 64.6726 69.6175 63.2201C69.6175 61.7661 70.7977 60.5884 72.2492 60.5884H77.5117C78.9642 60.5884 80.1435 61.7661 80.1435 63.2201C80.1435 64.6726 78.9642 65.8506 77.5117 65.8506ZM64.355 65.8506H59.0912C57.64 65.8506 56.4595 64.6726 56.4595 63.2201C56.4595 61.7661 57.64 60.5884 59.0912 60.5884H64.355C65.8065 60.5884 66.9855 61.7661 66.9855 63.2201C66.9855 64.6726 65.8065 65.8506 64.355 65.8506ZM51.197 65.8506H45.9332C44.482 65.8506 43.3027 64.6726 43.3027 63.2201C43.3027 61.7661 44.482 60.5884 45.9332 60.5884H51.197C52.6485 60.5884 53.8287 61.7661 53.8287 63.2201C53.8287 64.6726 52.6485 65.8506 51.197 65.8506Z" fill="#393939"/>
<path d="M132.355 140.901H18.6444C17.1894 140.901 16.0127 139.724 16.0127 138.271C16.0127 136.816 17.1894 135.64 18.6444 135.64H132.355C133.81 135.64 134.987 136.816 134.987 138.271C134.987 139.724 133.81 140.901 132.355 140.901Z" fill="#393939"/>
<path d="M108.476 150H42.5236C41.0684 150 39.8916 148.823 39.8916 147.368C39.8916 145.913 41.0684 144.736 42.5236 144.736H108.476C109.931 144.736 111.108 145.913 111.108 147.368C111.108 148.823 109.931 150 108.476 150Z" fill="#393939"/>
<path d="M78.1317 138.271H72.8682V72.5767H78.1317V138.271Z" fill="#393939"/>
<path d="M86.8282 34.6301C86.2177 34.6301 85.605 34.4176 85.1117 33.9928L76.6742 26.7271C74.5905 24.8911 73.177 22.5998 72.5605 20.0803C72.154 18.4081 72.2335 17.2631 72.3055 16.7711C72.7997 11.9113 76.5767 8.25781 81.1275 8.25781C83.2417 8.25781 85.234 9.01106 86.7965 10.3148C88.3272 9.00131 90.2755 8.25781 92.3822 8.25781C96.938 8.25781 100.72 11.9126 101.208 16.7748C101.276 17.2631 101.354 18.4068 100.949 20.0768C100.329 22.6086 98.9107 24.9021 96.85 26.7101L88.564 33.9768C88.066 34.4126 87.4482 34.6301 86.8282 34.6301ZM77.4995 17.6048C77.5092 17.6048 77.486 18.0613 77.674 18.8328C78.0342 20.3001 78.8812 21.6576 80.1312 22.7598L86.8135 28.5118L93.3807 22.7538C94.626 21.6623 95.4755 20.3038 95.837 18.8291C96.0445 17.9796 95.998 17.5108 95.9955 17.5058C95.8002 15.4453 94.5087 13.5203 92.3822 13.5203C91.003 13.5203 89.831 14.3248 89.2377 15.6736C88.8227 16.6318 87.8755 17.2508 86.8305 17.2521C85.788 17.2521 84.8385 16.6356 84.4185 15.6786C83.8422 14.3676 82.5507 13.5203 81.1275 13.5203C79.0057 13.5203 77.7155 15.4466 77.5362 17.3486C77.53 17.4363 77.5155 17.5231 77.4995 17.6096C77.4995 17.6073 77.4995 17.6048 77.4995 17.6048Z" fill="#393939"/>
<path d="M102.163 24.0747C101.55 24.0747 100.94 23.8635 100.444 23.4375L97.6587 21.0375C96.5577 20.088 96.4354 18.4265 97.3827 17.3255C98.3374 16.2267 99.9952 16.1035 101.096 17.0495L102.148 17.9565L107.817 12.9858C108.882 12.057 109.604 10.8997 109.917 9.6375C110.083 8.944 110.051 8.5595 110.051 8.556C109.885 6.847 108.843 5.26375 107.114 5.26375C106.003 5.26375 105.051 5.91675 104.575 7.0105C104.155 7.97 103.208 8.58875 102.163 8.58875C101.118 8.58875 100.166 7.9675 99.7509 7.00675C99.2869 5.9485 98.2447 5.26375 97.0874 5.26375C95.3637 5.26375 94.3139 6.847 94.1674 8.41175C94.1624 8.496 94.1504 8.5815 94.1332 8.66575C94.1479 8.63525 94.1162 8.94175 94.2869 9.635C94.6362 11.0463 93.7719 12.472 92.3607 12.8185C90.9619 13.1737 89.5264 12.3073 89.1772 10.8948C88.8012 9.37375 88.8719 8.31175 88.9354 7.843C89.3872 3.3655 92.8784 0 97.0874 0C98.9574 0 100.727 0.6385 102.134 1.74675C103.52 0.63 105.249 0 107.114 0C111.326 0 114.814 3.36675 115.261 7.84675C115.329 8.3105 115.395 9.36775 115.027 10.885C114.458 13.2105 113.162 15.3052 111.284 16.9457L103.899 23.4227C103.401 23.8562 102.783 24.0747 102.163 24.0747Z" fill="#393939"/>
</svg>
