<svg width="151" height="150" viewBox="0 0 151 150" fill="none" xmlns="http://www.w3.org/2000/svg">
<g clip-path="url(#clip0_119_591)">
<path d="M19.25 125C29.6053 125 38 116.605 38 106.25C38 95.8947 29.6053 87.5 19.25 87.5C8.89466 87.5 0.5 95.8947 0.5 106.25C0.5 116.605 8.89466 125 19.25 125Z" fill="#E1E8ED"/>
<path d="M106.75 108.333C119.406 108.333 129.666 98.0732 129.666 85.4167C129.666 72.7601 119.406 62.5 106.75 62.5C94.0931 62.5 83.833 72.7601 83.833 85.4167C83.833 98.0732 94.0931 108.333 106.75 108.333Z" fill="#E1E8ED"/>
<path d="M129.666 131.25C141.172 131.25 150.5 121.923 150.5 110.417C150.5 98.9109 141.172 89.5835 129.666 89.5835C118.16 89.5835 108.833 98.9109 108.833 110.417C108.833 121.923 118.16 131.25 129.666 131.25Z" fill="#E1E8ED"/>
<path d="M50.5003 120.833C62.0063 120.833 71.3337 111.506 71.3337 99.9998C71.3337 88.4939 62.0063 79.1665 50.5003 79.1665C38.9944 79.1665 29.667 88.4939 29.667 99.9998C29.667 111.506 38.9944 120.833 50.5003 120.833Z" fill="#E1E8ED"/>
<path d="M138 125C134.685 125 131.505 126.317 129.161 128.661C126.817 131.005 125.5 134.185 125.5 137.5H25.5C25.5 135.028 24.7669 132.611 23.3934 130.555C22.0199 128.5 20.0676 126.898 17.7835 125.952C15.4995 125.005 12.9861 124.758 10.5614 125.24C8.13661 125.723 5.90933 126.913 4.16117 128.661C2.41301 130.409 1.2225 132.637 0.74019 135.061C0.257874 137.486 0.505416 139.999 1.45151 142.284C2.39761 144.568 3.99976 146.52 6.05538 147.893C8.11099 149.267 10.5277 150 13 150H133.833V149.233C135.142 149.7 136.529 150 138 150C141.315 150 144.495 148.683 146.839 146.339C149.183 143.995 150.5 140.815 150.5 137.5C150.5 134.185 149.183 131.005 146.839 128.661C144.495 126.317 141.315 125 138 125Z" fill="#E1E8ED"/>
<path d="M0.5 106.25H38V137.5H0.5V106.25ZM83.8333 95.8335H121.333V112.5H83.8333V95.8335ZM129.667 110.417H150.5V137.5H129.667V110.417Z" fill="#E1E8ED"/>
<path d="M129.666 150V131.25C129.666 117.442 114.833 108.333 101.021 108.333H51.0205C37.2163 108.333 21.333 117.442 21.333 131.25V150H129.666Z" fill="#D4AB88"/>
<path d="M89.375 16.5623C82.2 14.2415 65.3125 14.8748 61.0917 20.3623C50.1167 20.5748 37.2417 30.4915 35.5542 43.579C33.8834 56.529 37.6084 62.5457 38.9292 72.2831C40.4292 83.3165 46.6334 86.8456 51.5917 88.3248C58.725 97.7498 66.3125 97.3498 79.05 97.3498C103.921 97.3498 115.767 80.7082 116.813 52.4457C117.45 35.3457 107.421 22.3998 89.375 16.5623Z" fill="#963B22"/>
<path d="M64.8418 90.2417V111.558C64.8418 114.385 65.9647 117.096 67.9636 119.095C69.9624 121.094 72.6734 122.217 75.5001 122.217C78.3269 122.217 81.0379 121.094 83.0367 119.095C85.0355 117.096 86.1585 114.385 86.1585 111.558V90.2417H64.8418Z" fill="#D4AB88"/>
<path d="M64.8418 102.909C67.8126 106.263 71.496 107.175 75.5001 107.175C79.5043 107.175 83.1835 106.263 86.1585 102.909V94.3794H64.8418V102.909Z" fill="#CC9B7A"/>
<path d="M103.6 53.6502C101.192 50.3168 98.1127 47.6335 91.3586 46.6835C93.8919 47.846 96.3169 51.8543 96.6336 54.071C96.9502 56.2877 97.2669 58.0835 95.2627 55.8668C87.2294 46.9877 78.4836 50.4835 69.8127 45.0627C63.7586 41.2752 61.9169 37.0835 61.9169 37.0835C61.9169 37.0835 61.1794 42.6752 51.9961 48.3752C49.3336 50.0293 46.1586 53.7043 44.3961 59.1377C43.1294 63.0418 43.5211 66.5252 43.5211 72.4752C43.5211 89.846 57.8377 104.45 75.4961 104.45C93.1544 104.45 107.471 89.7168 107.471 72.4752C107.475 61.671 106.346 57.4502 103.6 53.6502Z" fill="#F6D9BF"/>
<path d="M61.2876 68.9252C60.3449 68.9252 59.4409 68.5507 58.7744 67.8842C58.1079 67.2177 57.7334 66.3137 57.7334 65.371V61.8169C57.7334 60.8742 58.1079 59.9702 58.7744 59.3037C59.4409 58.6372 60.3449 58.2627 61.2876 58.2627C62.2302 58.2627 63.1342 58.6372 63.8007 59.3037C64.4673 59.9702 64.8417 60.8742 64.8417 61.8169V65.371C64.8417 66.3137 64.4673 67.2177 63.8007 67.8842C63.1342 68.5507 62.2302 68.9252 61.2876 68.9252ZM89.7126 68.9252C89.2458 68.9252 88.7837 68.8333 88.3524 68.6547C87.9212 68.476 87.5294 68.2142 87.1994 67.8842C86.8694 67.5542 86.6076 67.1624 86.4289 66.7311C86.2503 66.2999 86.1584 65.8378 86.1584 65.371V61.8169C86.1584 60.8742 86.5329 59.9702 87.1994 59.3037C87.8659 58.6372 88.7699 58.2627 89.7126 58.2627C90.6552 58.2627 91.5592 58.6372 92.2257 59.3037C92.8923 59.9702 93.2667 60.8742 93.2667 61.8169V65.371C93.2656 66.3133 92.8908 67.2167 92.2245 67.883C91.5582 68.5493 90.6548 68.9241 89.7126 68.9252Z" fill="#662113"/>
<path d="M64.8417 104.108L51.0208 108.333C42.4292 108.333 33.0375 111.863 27.1667 117.854C26.0828 120.081 25.5132 122.523 25.5 125V150H93.925C93.925 150 74.4 133.275 64.8417 104.108Z" fill="#CC9B7A"/>
<path d="M101.021 108.333H94.4914C87.7414 139.879 66.0664 150 66.0664 150H129.666V131.25C129.666 117.442 114.833 108.333 101.021 108.333Z" fill="#EB4853"/>
<path d="M66.0664 150H93.3706C93.3706 150 90.1039 147.104 87.9081 144.354C81.7747 148.079 66.0664 150 66.0664 150Z" fill="#C63900"/>
<path d="M102.825 108.333C99.5872 108.333 91.1164 104.167 86.1581 104.167C79.4081 135.712 66.0664 150 66.0664 150H82.7331C82.7331 150 96.0747 139.879 102.825 108.333Z" fill="#BA353E"/>
<path d="M77.7039 130.629C74.0206 138.371 66.0664 150 66.0664 150H82.9289C82.9289 150 85.5914 147.579 87.9122 144.354C84.4456 140.05 79.9956 134.246 77.7039 130.629Z" fill="#DD551F"/>
<path d="M56.508 108.333H51.0205C37.2163 108.333 21.333 117.442 21.333 131.25V150H85.5913C85.5913 150 66.0663 137.5 56.508 108.333Z" fill="#EB4853"/>
<path d="M64.8415 104.167C60.479 104.167 51.704 108.333 48.1748 108.333C57.7373 137.5 68.9248 150 68.9248 150H85.5915C85.5915 150 74.3998 133.333 64.8415 104.167Z" fill="#EB4853"/>
<path opacity="0.7" d="M133.833 116.667C127.923 116.67 122.204 118.768 117.695 122.59C113.186 126.411 110.177 131.707 109.204 137.537C109.075 137.533 108.958 137.5 108.833 137.5C104.783 137.502 100.821 138.686 97.4326 140.907C94.0446 143.127 91.3776 146.287 89.7583 150H138C144.875 150 150.5 144.375 150.5 137.5V123.071C145.929 118.946 139.99 116.664 133.833 116.667ZM57.075 150C55.4557 146.287 52.7887 143.127 49.4007 140.907C46.0127 138.686 42.0507 137.502 38 137.5C34.8687 137.517 31.7824 138.246 28.975 139.633C29.3833 138.292 29.6667 136.896 29.6667 135.417C29.6667 131.549 28.1302 127.839 25.3953 125.105C22.6604 122.37 18.9511 120.833 15.0833 120.833C11.5843 120.839 8.20446 122.106 5.56403 124.402C2.9236 126.698 1.1996 129.869 0.708333 133.333H0.5V137.5C0.5 144.375 6.125 150 13 150H57.075Z" fill="white"/>
</g>
<defs>
<clipPath id="clip0_119_591">
<rect width="150" height="150" fill="white" transform="translate(0.5)"/>
</clipPath>
</defs>
</svg>
