<svg width="161" height="160" viewBox="0 0 161 160" fill="none" xmlns="http://www.w3.org/2000/svg">
<path d="M114.891 62.3906C84.0313 55.625 109.328 12.8281 67.0469 16.375C24.7656 19.9218 -15.3281 117.281 59.7344 140.078C134.797 162.875 173.484 75.2343 114.891 62.3906Z" fill="#EB4853"/>
<path d="M43.75 70.2812C43.75 76.0625 48.4375 80.7344 54.2031 80.7344H104.047C105.547 80.7344 106.766 81.9531 106.766 83.4531V120.125C106.766 121.625 105.547 122.844 104.047 122.844H61.3281C51.6094 122.844 43.75 114.969 43.75 105.266V69.1094" fill="white"/>
<path d="M104.063 124.297H61.3281C50.8281 124.297 42.2969 115.766 42.2969 105.266V69.1094C42.2969 68.3125 42.9375 67.6562 43.75 67.6562C44.5625 67.6562 45.2031 68.2969 45.2031 69.1094V70.2969C45.2031 75.2656 49.25 79.3125 54.2187 79.3125H104.063C106.359 79.3125 108.219 81.1875 108.219 83.4688V120.141C108.219 122.422 106.359 124.297 104.063 124.297ZM45.2031 78.0625V105.266C45.2031 114.172 52.4375 121.406 61.3438 121.406H104.063C104.766 121.406 105.328 120.844 105.328 120.141V83.4688C105.328 82.7656 104.766 82.2031 104.063 82.2031H54.2187C52.5066 82.2017 50.815 81.8311 49.2591 81.1166C47.7033 80.402 46.3198 79.3603 45.2031 78.0625Z" fill="#27272A"/>
<path d="M104.062 124.297H61.3281C50.8281 124.297 42.2969 115.766 42.2969 105.266V69.8594C42.2969 63.5156 47.4688 58.3438 53.8125 58.3438H103.766C104.562 58.3438 105.219 58.9844 105.219 59.7969C105.219 60.6094 104.578 61.25 103.766 61.25H53.8125C49.0625 61.25 45.1875 65.125 45.1875 69.875V70.2969C45.1875 75.2656 49.2344 79.3125 54.2031 79.3125H104.047C106.344 79.3125 108.203 81.1875 108.203 83.4688V120.141C108.205 120.686 108.1 121.226 107.892 121.73C107.685 122.234 107.381 122.692 106.996 123.079C106.611 123.465 106.154 123.771 105.651 123.98C105.147 124.189 104.608 124.297 104.062 124.297ZM45.2031 78.0625V105.266C45.2031 114.172 52.4375 121.406 61.3437 121.406H104.062C104.766 121.406 105.328 120.844 105.328 120.141V83.4688C105.328 82.7656 104.766 82.2031 104.062 82.2031H54.2187C52.5066 82.2017 50.815 81.8311 49.2591 81.1166C47.7033 80.402 46.3198 79.3603 45.2031 78.0625Z" fill="#27272A"/>
<path d="M92.5781 80.7812H60.6094V50.0469C60.6094 48.4531 61.9062 47.1719 63.4844 47.1719H89.6875C91.2812 47.1719 92.5625 48.4687 92.5625 50.0469V80.7812H92.5781Z" fill="#EB4853"/>
<path d="M92.5781 82.1094H60.6094C60.2571 82.1094 59.9193 81.9695 59.6702 81.7204C59.4212 81.4713 59.2812 81.1335 59.2812 80.7812V50.0469C59.2812 47.7344 61.1719 45.8438 63.4844 45.8438H89.6875C92 45.8438 93.8906 47.7344 93.8906 50.0469V80.7812C93.9062 81.5156 93.3125 82.1094 92.5781 82.1094ZM61.9375 79.4531H91.2656V50.0469C91.2656 49.1875 90.5625 48.4844 89.7031 48.4844H63.4844C62.625 48.4844 61.9219 49.1875 61.9219 50.0469V79.4531H61.9375Z" fill="#27272A"/>
<path d="M66.4688 48.0781H73.4844V79.8437H66.4688V48.0781Z" fill="white"/>
<path d="M73.4844 80.5781H66.4688C66.2698 80.5781 66.0791 80.4991 65.9384 80.3585C65.7978 80.2178 65.7188 80.027 65.7188 79.8281V48.0781C65.7188 47.6719 66.0469 47.3281 66.4688 47.3281H73.4844C73.8906 47.3281 74.2344 47.6563 74.2344 48.0781V79.8438C74.2344 80.25 73.8906 80.5781 73.4844 80.5781ZM67.2188 79.0938H72.75V48.8125H67.2188V79.0938ZM78.875 51.2813H81.2969V57.9219H78.875V51.2813ZM78.875 60.3281H81.2969V76.6563H78.875V60.3281ZM85.2188 51.2813H87.6406V76.6563H85.2188V51.2813Z" fill="#27272A"/>
<path d="M108.953 92H81.9844C77.9687 92 74.3906 94.9375 74.0156 98.9219C73.5781 103.5 77.1719 107.359 81.6562 107.359H108.953C109.859 107.359 110.578 106.625 110.578 105.734V93.625C110.578 92.7344 109.859 92 108.953 92Z" fill="#EB4853"/>
<path d="M108.953 108.766H81.656C79.1091 108.766 76.656 107.687 74.9373 105.797C74.0847 104.856 73.4385 103.747 73.0403 102.542C72.642 101.336 72.5005 100.06 72.6248 98.7969C73.0623 94.2031 77.1716 90.6094 81.9998 90.6094H108.969C110.64 90.6094 112 91.9687 112 93.6406V105.75C111.984 107.406 110.625 108.766 108.953 108.766ZM81.9841 93.4062C78.5935 93.4062 75.7029 95.8906 75.406 99.0625C75.3146 99.9379 75.4109 100.823 75.6884 101.658C75.9659 102.493 76.4183 103.26 77.0154 103.906C77.6051 104.555 78.3239 105.074 79.1257 105.429C79.9275 105.784 80.7947 105.968 81.6716 105.969H108.969C109.094 105.969 109.203 105.859 109.203 105.734V93.625C109.203 93.5 109.094 93.3906 108.969 93.3906L81.9841 93.4062Z" fill="#27272A"/>
<path d="M78.7031 99.6875C78.7031 100.632 79.0785 101.538 79.7466 102.207C80.4147 102.875 81.3208 103.25 82.2656 103.25C83.2105 103.25 84.1166 102.875 84.7847 102.207C85.4528 101.538 85.8281 100.632 85.8281 99.6875C85.8281 98.7427 85.4528 97.8365 84.7847 97.1684C84.1166 96.5003 83.2105 96.125 82.2656 96.125C81.3208 96.125 80.4147 96.5003 79.7466 97.1684C79.0785 97.8365 78.7031 98.7427 78.7031 99.6875Z" fill="white"/>
</svg>
